<svg enable-background="new 0 0 32 32" height="256" viewBox="0 4 32 24" width="512" xmlns="http://www.w3.org/2000/svg"><path d="m11.667 11.618-3.298.899c-.218.06-.369.257-.369.483v7c0 .226.151.423.368.482l3.298.899v-9.763z" fill="#08b"/><path d="m23.544 12.502-10.878-.96v9.916l10.878-.96c.258-.023.456-.239.456-.498v-7c0-.259-.198-.475-.456-.498zm-8.544 6.498c0 .276-.224.5-.5.5s-.5-.224-.5-.5v-5c0-.276.224-.5.5-.5s.5.224.5.5zm2.667-.333c0 .276-.224.5-.5.5s-.5-.224-.5-.5v-4.333c0-.276.224-.5.5-.5s.5.224.5.5zm2.666-.334c0 .276-.224.5-.5.5s-.5-.224-.5-.5v-3.667c0-.276.224-.5.5-.5s.5.224.5.5zm2.334-.166c0 .276-.224.5-.5.5s-.5-.224-.5-.5v-3.167c0-.276.224-.5.5-.5s.5.224.5.5z" fill="#3cf"/></svg>