<svg height="444pt" viewBox="-54 0 444 444.528" width="444pt" xmlns="http://www.w3.org/2000/svg">
  <defs>
    <style type="text/css"><![CDATA[ * { fill: #0ad; } ]]></style>
  </defs>
<path d="m96.265625 120h48v8h-48zm0 0"/><path d="m112.265625 96h8v8h-8zm0 0"/><path d="m72.265625 200h163.71875l21.328125-32h-185.046875zm16-24h128v16h-128zm0 0"/><path d="m225.679688 239.871094c-8.417969 1.707031-16.320313 5.359375-23.078126 10.65625-9.710937 7.578125-21.363281 12.246094-33.617187 13.472656-2.082031.191406-4.074219.28125-5.976563.28125-10.664062-.273438-21.128906-2.972656-30.59375-7.898438-9.03125-4.515624-18.808593-7.359374-28.855468-8.382812-10.839844-.875-21.75.277344-32.167969 3.398438 24.742187 28.945312 61.128906 45.3125 99.203125 44.621093 38.070312-.695312 73.839844-18.375 97.511719-48.203125-12.910157-7.164062-27.796875-9.953125-42.425781-7.945312zm0 0"/><path d="m194.496094 120h-34.230469v16c0 4.417969-3.582031 8-8 8h-56v8h108.902344zm0 0"/><path d="m168.265625 0c-92.742187.105469-167.894531 75.261719-168 168 0 96.246094 138.09375 245.367188 168 276.527344 29.902344-31.160156 168-180.28125 168-276.527344-.109375-92.738281-75.261719-167.894531-168-168zm10.277344 311.632812c-3.472657.246094-6.941407.375-10.398438.375-78.578125.003907-142.671875-62.941406-144.09375-141.507812-1.417969-78.5625 60.359375-143.78125 138.882813-146.621094 78.527344-2.839844 144.851562 57.75 149.105468 136.210938 4.257813 78.460937-55.125 145.871094-133.496093 151.542968zm0 0"/><path d="m168.34375 40c-3.054688 0-6.128906.109375-9.222656.328125-45.253906 3.199219-85.425782 30.132813-105.566406 70.78125-20.140626 40.648437-17.238282 88.925781 7.628906 126.867187 14.015625-5.054687 28.941406-7.09375 43.800781-5.976562 11.804687 1.15625 23.300781 4.441406 33.9375 9.695312 8.71875 4.839844 18.664063 7.03125 28.613281 6.304688 9.542969-.984375 18.59375-4.710938 26.066406-10.726562 8.609376-6.578126 18.617188-11.085938 29.246094-13.175782 18.839844-2.746094 38.050782.917969 54.558594 10.398438 24.148438-39.449219 25.09375-88.867188 2.472656-129.210938-22.625-40.34375-65.28125-65.3125-111.535156-65.285156zm110.578125 124.441406-32 48c-1.484375 2.222656-3.984375 3.558594-6.65625 3.558594h-176c-4.417969 0-8-3.582031-8-8v-48c0-4.417969 3.582031-8 8-8h16v-40c0-4.417969 3.582031-8 8-8h8v-16c0-4.417969 3.582031-8 8-8h24c4.417969 0 8 3.582031 8 8v16h64c3.441406 0 6.5 2.203125 7.589844 5.472656l14.175781 42.527344h50.234375c2.949219 0 5.660156 1.625 7.054687 4.226562 1.390626 2.601563 1.238282 5.757813-.398437 8.214844zm0 0"/></svg>