<?xml version="1.0" encoding="utf-8"?>
<!-- Generator: Adobe Illustrator 24.0.1, SVG Export Plug-In . SVG Version: 6.00 Build 0)  -->
<svg version="1.1" id="Layer_1" xmlns="http://www.w3.org/2000/svg" xmlns:xlink="http://www.w3.org/1999/xlink" x="0px" y="0px"
	 viewBox="0 0 690 775" style="enable-background:new 0 0 690 775;" xml:space="preserve">
<style type="text/css">
	.st0{fill:#E1F0FE;}
	.st1{fill:#55C9F4;}
	.st2{fill:#010D2C;}
</style>
<g id="XMLID_13106_">
	<polygon id="XMLID_13192_" class="st1" points="291.5,588.7 117,488 117,295.7 291.5,396.5 	"/>
	<polygon id="XMLID_13191_" class="st1" points="458.4,98.3 117,295.4 291.6,396.2 633,199.1 	"/>
	<path id="XMLID_13186_" class="st2" d="M117,294.3l-1.1,0.9V486v2.7v13.5l23.4,13.5l11.1-7.1L263.8,574l5,16.4l21.6,12.5l2.3-0.3
		v-11.9v-2.7V395.8L119.2,295.6L117,294.3z M138.3,512.5l-20.1-11.6V490l5.3,3.1l18.8,10.9L138.3,512.5z M290.4,600.3l-19.6-11.3
		l-4-13.2l23.7,13.7V600.3z M290.4,586.8l-1.4-0.8l-32.6-18.9v-6.6l-22.4-13v6.6l-59.3-34.2v-6.6l-22.4-13v6.6l-34.1-19.7V297.7
		l172.2,99.4V586.8z"/>
	<path id="XMLID_13183_" class="st0" d="M458.3,103.8L121,298.7L293.4,398l337.2-194.7L458.3,103.8z M291.5,380.6L142.1,296
		l316.2-182.7l148.8,85.9L291.5,380.6z"/>
	<path id="XMLID_13180_" class="st2" d="M633,197.7L291,395.2l-0.6,0.3v192.3v2.7l0,12.5l0.9,0.5l22.9-13.2l5-16.4l280.6-162
		l10.8,7.3l23.4-13.5V392v-2.7V198.4L633,197.7z M608.5,414.4l-6.2-3.9l3.4-2l0.3,0.5L608.5,414.4z"/>
	<path id="XMLID_13156_" class="st1" d="M308.9,400.7l-0.6,0.3v162.7l17.5-10l0.6-0.3l0,0l11.8-6.8l0.4-0.2v0l14.9-8.5l0.9-0.5l0,0
		l12.3-7.1l0,0l14.7-8.5l1-0.5l0,0l12.3-7.2l0,0l14.6-8.4l1.1-0.5l0,0l12.3-7.2l0,0l14.5-8.4l1.2-0.5l0,0l12.3-7.3l0,0l15-8.6
		l0.8-0.5l0,0l1.4-0.8l10.9-6.1v-0.1l14.6-8.4l1.1-0.5l0,0l12.3-7.2l0,0l14.5-8.4l1.2-0.5l0,0l12.3-7.3l0,0l14.4-8.3l1.3-0.5l0,0
		l12.3-7.3l0,0l14.3-8.2l1.4-0.5l0,0l12.3-7.4l0,0l15.6-8.9l0.2,0v-0.1l11.7-6.7l0.6-0.3V385V224.8v-2.3L308.9,400.7z M466.6,470.1
		l-0.1,0.1V312.8l10-5.7v157.4L466.6,470.1z M326.4,393.3l10-5.7v157.4l-10,5.6V393.3z M338.7,386.3l13.5-7.7v156.9l-13.5,0.1V386.3
		z M354.4,534.6V377.2l10-5.7v157.4L354.4,534.6z M366.6,370.2l13.5-7.8v157l-13.5,0.1L366.6,370.2L366.6,370.2z M382.5,518.4V361.1
		l10-5.7v157.4L382.5,518.4z M394.6,354.1l13.6-7.8v157l-13.5,0.1V354.1H394.6z M410.5,502.3V345l10-5.7v157.4L410.5,502.3z
		 M422.5,338.1l13.7-7.9v157.1l-13.5,0.1V338.1H422.5z M438.5,486.2V328.9l10-5.7v157.4L438.5,486.2z M450.4,322l13.9-8V471
		l-13.5,0.1V322H450.4z M478.8,305.7l13.5-7.7V455l-13.5,0.1V305.7z M494.6,454V296.7l10-5.7v157.4L494.6,454z M506.5,289.8
		l13.8-7.9V439l-13.5,0.1V289.8H506.5z M522.6,437.9V280.5l10-5.7v157.4L522.6,437.9z M534.8,273.5l13.5-7.7v157.2l-13.5,0.1V273.5z
		 M550.6,421.8V264.4l10-5.7v157.4L550.6,421.8z M562.9,257.4l13.5-7.7v157.2l-13.5,0.1V257.4z M578.6,405.7V248.3l10-5.7V400
		L578.6,405.7z M590.9,241.3l13.5-7.7v156.5l-13.5,0.1V241.3z M606.6,389.3v-157l10-5.7v157.2L606.6,389.3z M324.1,394.6v156.7
		l-13.5,0.1V402.4L324.1,394.6z"/>
	<g id="XMLID_13143_">
		<polygon id="XMLID_13155_" class="st0" points="184.8,273.4 195,267.5 339.8,350.2 329.7,356 		"/>
		<polygon id="XMLID_13154_" class="st0" points="159.6,288.3 169.7,282.4 314.6,365.1 304.5,370.9 		"/>
		<polygon id="XMLID_13153_" class="st0" points="211.3,258.3 221.4,252.4 366.3,335.1 356.2,340.9 		"/>
		<polygon id="XMLID_13152_" class="st0" points="237.2,242.8 247.3,236.9 392.2,319.6 382.1,325.4 		"/>
		<polygon id="XMLID_13151_" class="st0" points="262.6,227.7 272.7,221.9 417.6,304.5 407.5,310.4 		"/>
		<polygon id="XMLID_13150_" class="st0" points="289.1,212.6 299.2,206.8 444,289.5 433.9,295.3 		"/>
		<polygon id="XMLID_13149_" class="st0" points="315,197.2 325.1,191.3 469.9,274 459.8,279.8 		"/>
		<polygon id="XMLID_13148_" class="st0" points="341.6,182.5 351.7,176.7 496.6,259.4 486.5,265.2 		"/>
		<polygon id="XMLID_13147_" class="st0" points="367.5,167 377.6,161.2 522.5,243.9 512.4,249.7 		"/>
		<polygon id="XMLID_13146_" class="st0" points="394.5,152 404.7,146.1 549.5,228.8 539.4,234.6 		"/>
		<polygon id="XMLID_13145_" class="st0" points="421,136.9 431.1,131 576,213.7 565.9,219.5 		"/>
		<polygon id="XMLID_13144_" class="st0" points="446.9,121.4 457,115.5 601.9,198.2 591.8,204 		"/>
	</g>
	<path id="XMLID_13140_" class="st2" d="M291.6,397.6l-0.6-0.3L116,296.2l1-1.9L458.4,97l0.6,0.3l175.1,101.1l0,1.3L291.6,397.6z
		 M119.3,295.4l172.3,99.5l339.1-195.8L458.4,99.6L119.3,295.4z"/>
	<path id="XMLID_13114_" class="st2" d="M607.1,199.3l-1.7-1l0,0l0,0l-147.1-84.9l-0.6-0.3L405,143.6l-0.2-0.1L390,152l0.2,0.1
		l-11.6,6.7l-0.4-0.2l-14.7,8.5l0.4,0.2l-11.5,6.7l-0.4-0.2l-14.7,8.5l0.4,0.2l-63.7,37l-0.1,0l-14.7,8.5l0.1,0L142.1,296
		l147.2,83.8l2,1.1l0,0l0.6,0.3L607.1,199.3z M153.4,299.7l7.1-10.6l142.1,83.3l-10.8,6.2L153.4,299.7z M274,222.2l145.2,82.9
		l-10.1,5.8l-145.3-82.9L274,222.2z M352.4,176.7l145.4,83l-10.1,5.8l-145.4-83L352.4,176.7z M360.5,178.5l5.7-9.8l0,0l145.5,83
		l-11.6,6.7l-0.2-0.1l0.1-0.1L360.5,178.5z M378.7,161.5l145.5,83l-10.1,5.8l-145.5-83L378.7,161.5z M387.1,163.4l5.7-9.9
		l145.3,82.9l-11.7,6.7l0,0l0.1-0.2L387.1,163.4z M405,146.3l145.5,83.1l-10.1,5.8l-145.6-83L405,146.3z M576.7,214.2l-10.1,5.8
		l-145.5-83l10.1-5.9L576.7,214.2z M440.1,133.4l5.7-9.9l144.8,82.6l-11.5,6.6L440.1,133.4z M447.7,122l10.1-5.9l144.7,83.2
		l-9.6,5.6L447.7,122z M564.3,221.3l-11.5,6.6l-139.3-79.5l5.7-9.9L564.3,221.3z M445.5,289.9l-10.1,5.8l-145.2-82.8l10.1-5.9
		L445.5,289.9z M309.2,209.4l5.7-9.9l144.5,82.4l-11.5,6.6L309.2,209.4z M316.8,197.9l10.1-5.9l4.3,2.5l-0.1,0.1l140.4,80.2
		l-9.9,5.7L316.8,197.9z M334.4,193.7l5.6-9.7l145.4,82.9l-11.3,6.5L334.4,193.7z M433.1,297.1l-11.5,6.6l-139-79.3l5.7-9.9
		L433.1,297.1z M176.1,286l138.3,79.6l-9.5,5.5l-142.4-83.5l8.2-4.7L176.1,286z M178.5,284.7l5.3-9.4l144.4,82.4l-10.8,6.3
		L178.5,284.7z M185.6,273.7l10.1-5.9l144.8,82.7l-10.1,5.8L185.6,273.7z M204.5,270.1l5.7-9.9l144.2,82.3l-11.5,6.6L204.5,270.1z
		 M212.1,258.7l10.1-5.9l144.7,82.5l-10.2,5.9L212.1,258.7z M230.2,254.6l5.7-9.9l144.8,82.6l-11.5,6.6L230.2,254.6z M237.8,243.2
		l10.1-5.9l5.1,2.9l0,0.1l140,79.9l-10,5.8L237.8,243.2z M256.2,239.4l5.7-9.8l144.9,82.7l-11.4,6.6L256.2,239.4z"/>
	<polygon id="XMLID_13113_" class="st0" points="152.7,481 276.4,408.9 276.4,552.2 	"/>
	<polygon id="XMLID_13112_" class="st0" points="133.2,481.6 141,476.9 276.4,554.9 276.4,564.3 	"/>
	<path id="XMLID_13107_" class="st2" d="M129.8,317.2v162.7l0,0v0.1l1.2,0.6l0,0l147.7,85.3V551V403.1L129.8,317.2z M139.8,325.6
		v146.9l-4.5,2.7l-3.2,1.9v-156L139.8,325.6z M133.2,479.1l3.1-1.9l4.7-2.8l135.4,77.9v9.4L133.2,479.1z M152.7,478.5l123.8-72
		v143.3L152.7,478.5z"/>
</g>
<g id="XMLID_13083_">
	<polygon id="XMLID_13089_" class="st1" points="228,449.1 228,408.9 261.6,429 261.6,468.7 	"/>
	<polygon id="XMLID_13088_" class="st0" points="228,408.9 256.6,392 277.3,404 277.3,419.8 261.6,429 	"/>
	<path id="XMLID_13084_" class="st2" d="M256.6,390.7L228,407.6l-1.2,0.7v1.3v40.2l33.6,19.5l1.1,0.7l0,0l0,0l1.2-0.7l15.7-9v-39.9
		v-2.7v-14.4L256.6,390.7z M256.6,393.4l19.6,11.3v14.5l-14.5,8.6l-25-15l-6.3-3.8L256.6,393.4z M229.2,448.5V411l6.4,3.8l24.9,14.9
		v37L229.2,448.5z"/>
</g>
<g id="XMLID_13076_">
	<polygon id="XMLID_13082_" class="st1" points="244.6,490.6 244.6,464.1 266.8,477.4 266.8,503.5 	"/>
	<polygon id="XMLID_13081_" class="st0" points="244.6,464.1 263.4,452.9 277.1,460.8 277.1,471.2 266.8,477.4 	"/>
	<path id="XMLID_13077_" class="st2" d="M263.4,452.1l-18.8,11.2l-0.8,0.5v0.9V491L266,504l0.8,0.4l0,0l0,0l0.8-0.4l10.4-6v-26.3
		v-1.8v-9.5L263.4,452.1z M263.4,453.8l12.9,7.5v9.5l-9.6,5.7l-16.5-9.9l-4.2-2.5L263.4,453.8z M245.3,490.2v-24.8l4.2,2.5l16.4,9.8
		v24.4L245.3,490.2z"/>
</g>
<g id="XMLID_13064_">
	<polygon id="XMLID_13075_" class="st0" points="239.2,427.6 200.8,405.5 162.5,427.6 162.5,427.6 162.5,471.9 200.8,494 
		200.8,449.9 	"/>
	<polygon id="XMLID_13074_" class="st1" points="162.5,471.7 200.8,493.8 200.8,449.7 162.5,427.5 162.5,427.5 	"/>
	<path id="XMLID_13069_" class="st2" d="M239.9,427.2l-39.1-22.6l-39,22.5l-0.1,0.1v0l0,0.9l0,0v44.2l38.3,22.1l0,0l0.8,0.4l0.8-0.4
		l0,0l37.9-21.9l0.4-0.2v-44.2h0L239.9,427.2z M200.8,406.4l18,10.4L182.1,438l-18-10.4L200.8,406.4z M200.1,492.7l-36.8-21.2V429
		l36.8,21.2V492.7z M216.4,439.9l-15.6,9l-18-10.4l36.8-21.2l18,10.4L216.4,439.9z"/>
	<path id="XMLID_13066_" class="st2" d="M185.6,449.8l-7.1-4.1c-0.8-0.5-1.6-0.5-2.2-0.1c-0.7,0.4-1.2,1.3-1.2,2.5
		c0,1.9,1.2,4.1,2.6,5l7.1,4.1c0.4,0.2,0.9,0.4,1.3,0.4c0.3,0,0.7-0.1,1-0.3c0.7-0.4,1.2-1.3,1.2-2.5
		C188.3,452.8,187.1,450.7,185.6,449.8z M186.3,455.9c-0.2,0.1-0.5,0-0.7-0.1l-7.1-4.1c-1-0.6-1.9-2.2-1.9-3.6
		c0-0.7,0.2-1.1,0.4-1.2c0.2-0.1,0.5,0,0.7,0.1l0.5,0.3c0.2,1.7,1.2,3.4,2.4,4.1l6.1,3.5C186.7,455.5,186.5,455.8,186.3,455.9z"/>
	<path id="XMLID_13065_" class="st1" d="M233.6,459c-0.4-0.2-0.8-0.2-1.2,0.1l-5.7,3.3c-0.8,0.5-1.5,1.7-1.5,2.8v6.1
		c0,0.6,0.2,1.2,0.6,1.4c0.2,0.1,0.3,0.1,0.5,0.1c0.2,0,0.5-0.1,0.7-0.2l5.7-3.3h0c0.8-0.5,1.5-1.7,1.5-2.8v-6.1
		C234.3,459.7,234,459.2,233.6,459z"/>
</g>
</svg>
